<?xml version="1.0" encoding="UTF-8" standalone="no"?>
<!-- Created with Inkscape (http://www.inkscape.org/) -->

<svg
   width="28.4055mm"
   height="9.0429726mm"
   viewBox="0 0 28.4055 9.0429726"
   version="1.1"
   id="svg1"
   xml:space="preserve"
   xmlns="http://www.w3.org/2000/svg"
   xmlns:svg="http://www.w3.org/2000/svg"><defs
     id="defs1" /><g
     id="layer1"
     transform="translate(-86.38637,-192.99821)"><path
       d="m 48.724158,224.46589 v -9.01703 h 1.961637 v 0.99994 h -0.983919 v 0.99994 h 0.983919 v 1.00563 h -0.983919 v 5.00538 h 0.983919 v 1.00614 z"
       style="font-size:12.656px;font-family:Musashi;-inkscape-font-specification:Musashi;stroke-width:1.05467"
       id="path12"
       transform="translate(57.249133,-22.45064)" /><path
       d="m 54.603385,215.44886 v 9.01703 h 1.264533 a 1.6565742,1.6565742 157.17811 0 0 1.184463,-0.49843 l 0.003,-0.003 a 1.7100697,1.7100697 112.17811 0 0 0.487358,-1.19553 V 216.455 l -0.977718,-1.00614 z m 0.977719,1.00614 h 0.488859 l 0.49506,0.49972 v 5.66544 a 0.84106956,0.84106956 112.36609 0 1 -0.24357,0.59194 l -0.0079,0.008 a 0.83002265,0.83002265 157.36609 0 1 -0.589652,0.24586 h -0.142777 z"
       style="font-size:12.656px;font-family:Musashi;-inkscape-font-specification:Musashi;stroke-width:1.05467"
       id="path15"
       transform="translate(57.249133,-22.45064)" /><path
       d="m 108.91265,202.01525 v -9.01703 h 1.96163 v 0.99994 h -0.98392 v 0.99994 h 0.98392 v 1.00563 h -0.98392 v 5.00538 h 0.98392 v 1.00614 z"
       style="font-size:12.656px;font-family:Musashi;-inkscape-font-specification:Musashi;stroke-width:1.05467"
       id="path14" /><path
       d="m 47.74644,224.46589 v -7.01715 H 45.784802 V 216.4488 H 46.7465 a 0.99994,0.99994 135 0 0 0.99994,-0.99994 h -2.939873 v 3.00551 h 1.962155 v 5.00538 h -0.98392 v -4.00545 h -0.978235 v 5.01159 z"
       style="font-size:12.656px;font-family:Musashi;-inkscape-font-specification:Musashi;stroke-width:1.05467"
       id="path11"
       transform="translate(57.249133,-22.45064)" /><path
       d="m 99.116345,192.99822 v 9.01703 h 1.961635 v -0.99994 h -0.98392 v -8.01709 z"
       style="font-size:12.656px;font-family:Musashi;-inkscape-font-specification:Musashi;stroke-width:1.05467"
       id="path9" /><path
       d="m 96.176989,192.99822 v 9.01703 h 1.961638 v -0.99994 h -0.983919 v -8.01709 z"
       style="font-size:12.656px;font-family:Musashi;-inkscape-font-specification:Musashi;stroke-width:1.05467"
       id="path8" /><path
       d="m 36.971903,217.43083 v 7.061 h 0.977719 v -6.07708 a 0.98082403,0.98082403 45.181098 0 0 -0.977719,-0.98392 z"
       style="font-size:12.656px;font-family:Musashi;-inkscape-font-specification:Musashi;stroke-width:0.933293"
       id="path6"
       transform="translate(57.249133,-22.45064)" /><path
       d="m 90.303963,192.99822 v 9.01703 h 0.977718 v -1.99988 h 0.488859 l 0.49506,0.50023 v 1.49965 h 0.977718 v -1.99988 l -0.488859,-0.50591 c 0.328679,-0.35786 0.50416,-0.8302 0.488859,-1.31585 v -5.19539 H 92.2656 v 5.14812 c 0,0.23267 -0.03054,0.88734 -0.733957,0.87857 l -0.240518,-0.003 -0.0094,-0.0117 v -6.01152 z"
       style="-inkscape-font-specification:Musashi;stroke-width:1.05467"
       id="path5" /><path
       d="m 29.13724,215.44886 v 7.01715 h 1.961637 v 0.99994 H 29.13724 v 0.99994 h 2.939355 v -3.00551 H 30.114958 V 216.455 h 0.983919 v 3.02773 a 0.977718,0.977718 45 0 0 0.977718,0.97772 v -5.01159 z"
       style="-inkscape-font-specification:Musashi;stroke-width:1.05467"
       id="path3"
       transform="translate(57.249133,-22.45064)" /><rect
       style="fill:#000000;stroke-width:0.264583"
       id="rect19"
       width="0.97799999"
       height="0.97799999"
       x="94.222588"
       y="192.99873" /></g></svg>
